<?xml version="1.0" encoding="UTF-8" standalone="no"?>
<svg width="18px" height="18px" viewBox="0 0 18 18" version="1.1" xmlns="http://www.w3.org/2000/svg" xmlns:xlink="http://www.w3.org/1999/xlink" xmlns:sketch="http://www.bohemiancoding.com/sketch/ns">
    <!-- Generator: Sketch 3.2.2 (9983) - http://www.bohemiancoding.com/sketch -->
    <title>Shape</title>
    <desc>Created with Sketch.</desc>
    <defs></defs>
    <g id="Admin" stroke="none" stroke-width="1" fill="none" fill-rule="evenodd" sketch:type="MSPage">
        <g id="admin" sketch:type="MSArtboardGroup" transform="translate(-1247.000000, -21.000000)" fill="#FFFFFF">
            <g id="header" sketch:type="MSLayerGroup">
                <g id="user" transform="translate(1149.000000, 21.000000)" sketch:type="MSShapeGroup">
                    <g id="exit-to-app" transform="translate(98.000000, 0.000000)">
                        <path d="M7.1,12.6 L8.5,14 L13.5,9 L8.5,4 L7.1,5.4 L9.7,8 L0,8 L0,10 L9.7,10 L7.1,12.6 L7.1,12.6 Z M16,0 L2,0 C0.9,0 0,0.9 0,2 L0,6 L2,6 L2,2 L16,2 L16,16 L2,16 L2,12 L0,12 L0,16 C0,17.1 0.9,18 2,18 L16,18 C17.1,18 18,17.1 18,16 L18,2 C18,0.9 17.1,0 16,0 L16,0 Z" id="Shape"></path>
                    </g>
                </g>
            </g>
        </g>
    </g>
</svg>